<?xml version="1.0" standalone="no"?>
<!DOCTYPE svg PUBLIC "-//W3C//DTD SVG 20010904//EN"
  "http://www.w3.org/TR/2001/REC-SVG-20010904/DTD/svg10.dtd">
<svg version="1.0" xmlns="http://www.w3.org/2000/svg"
     width="274.000000pt" height="274.000000pt" viewBox="0 0 274.000000 274.000000"
     preserveAspectRatio="xMidYMid meet">
  <metadata>
    Created by potrace 1.11, written by Peter Selinger 2001-2013
  </metadata>
  <g transform="translate(0.000000,274.000000) scale(0.100000,-0.100000)"
     fill="#000000" stroke="none">
    <path d="M0 1370 l0 -1370 1370 0 1370 0 0 1370 0 1370 -1370 0 -1370 0 0
-1370z m1435 1118 c59 -66 170 -227 199 -292 75 -161 118 -313 131 -458 7 -75
22 -57 -133 -159 -50 -33 -130 -96 -176 -140 -46 -43 -88 -79 -94 -79 -5 0
-25 15 -44 33 -68 68 -175 152 -271 214 l-98 64 6 47 c28 208 126 452 271 673
54 82 121 159 139 159 7 0 39 -28 70 -62z m-980 -879 c108 -24 244 -70 325
-109 191 -93 387 -251 511 -411 34 -43 65 -79 69 -79 4 0 35 36 69 79 236 306
618 513 989 537 73 5 106 4 111 -4 9 -16 -14 -242 -33 -325 -88 -374 -339
-716 -668 -908 -154 -90 -368 -162 -478 -162 -122 1 -372 102 -545 219 -291
198 -523 547 -586 879 -15 78 -36 280 -30 296 4 14 185 6 266 -12z"/>
  </g>
</svg>
